<?xml version="1.0" encoding="UTF-8" standalone="no"?>
<!-- Uploaded to: SVG Repo, www.svgrepo.com, Generator: SVG Repo Mixer Tools -->
<svg width="800px" height="800px" viewBox="0 0 64 64" version="1.1" xmlns="http://www.w3.org/2000/svg" xmlns:xlink="http://www.w3.org/1999/xlink">
    
    <title>cld-cloud-network-folder</title>
    <desc>Created with Sketch.</desc>
    <defs>

</defs>
    <g id="General" stroke="none" stroke-width="1" fill="none" fill-rule="evenodd">
        <g id="SLICES-64px" transform="translate(-630.000000, -200.000000)">

</g>
        <g id="ICONS" transform="translate(-625.000000, -195.000000)">
            <g id="cld-cloud-network-folder" transform="translate(630.000000, 202.000000)">
                <path d="M8,8 L46,8 L46,7 C46,5.344 44.657,4 43,4 L25,4 C20,4 22,0 17,0 L7,0 C5.343,0 4,1.344 4,3 L4,31 C4,32.656 5.343,34 7,34 L8,34 L8,8 Z" id="Fill-594" fill="#FFFFFF">

</path>
                <path d="M8,8 L46,8 L46,7 C46,5.344 44.657,4 43,4 L25,4 C20,4 22,0 17,0 L7,0 C5.343,0 4,1.344 4,3 L4,31 C4,32.656 5.343,34 7,34 L8,34 L8,8 Z" id="Fill-595" fill-opacity="0.25" fill="#6C6984">

</path>
                <path d="M8,34 L47,34 C48.657,34 50,32.656 50,31 L50,8 L8,8 L8,34 Z" id="Fill-596" fill="#FFFFFF">

</path>
                <polygon id="Fill-597" fill="#FFFFFF" points="26 42 30 42 30 34 26 34">

</polygon>
                <polygon id="Fill-598" fill="#FFFFFF" points="34 48 54 48 54 44 34 44">

</polygon>
                <polygon id="Fill-599" fill-opacity="0.25" fill="#6C6984" points="26 37 30 37 30 34 26 34">

</polygon>
                <polygon id="Fill-600" fill-opacity="0.25" fill="#6C6984" points="34 48 37 48 37 44 34 44">

</polygon>
                <polygon id="Fill-601" fill="#FFFFFF" points="0 48 22 48 22 44 0 44">

</polygon>
                <polygon id="Fill-602" fill="#CDCCD6" points="22 50 34 50 34 42 22 42">

</polygon>
                <path d="M32.1484,16.5732 C31.3444,15.0472 29.6894,14.0002 27.7774,14.0002 C25.0784,14.0002 22.8884,16.0892 22.8884,18.6672 C20.1884,18.6672 18.0004,20.7562 18.0004,23.3332 C18.0004,25.9112 20.1884,28.0002 22.8884,28.0002 L33.8884,28.0002 C37.2634,28.0002 40.0004,25.3882 40.0004,22.1672 C40.0004,18.9452 37.2634,16.3332 33.8884,16.3332 C33.2844,16.3332 32.6994,16.4172 32.1474,16.5732 L32.1484,16.5732 Z" id="Fill-603" fill="#CDCCD6">

</path>
                <path d="M33.8887,16.333 C33.4587,16.333 33.0447,16.39 32.6407,16.47 C34.0447,17.264 34.9997,18.725 34.9997,20.416 C34.9997,22.948 32.8857,25 30.2777,25 L21.7777,25 C20.0267,25 18.5677,23.838 18.1397,22.27 C18.0557,22.612 17.9997,22.966 17.9997,23.333 C17.9997,25.91 20.1887,28 22.8887,28 L33.8887,28 C37.2637,28 39.9997,25.389 39.9997,22.166 C39.9997,18.945 37.2637,16.333 33.8887,16.333" id="Fill-604" fill-opacity="0.25" fill="#6C6984">

</path>
                <polygon id="Stroke-605" stroke="#676883" stroke-width="2" stroke-linecap="round" stroke-linejoin="round" points="22 50 34 50 34 42 22 42">

</polygon>
                <path d="M26,42 L26,34" id="Stroke-606" stroke="#676883" stroke-width="2" stroke-linecap="round" stroke-linejoin="round">

</path>
                <path d="M30,42 L30,34" id="Stroke-607" stroke="#676883" stroke-width="2" stroke-linecap="round" stroke-linejoin="round">

</path>
                <path d="M34,44 L54,44" id="Stroke-608" stroke="#676883" stroke-width="2" stroke-linecap="round" stroke-linejoin="round">

</path>
                <path d="M34,48 L54,48" id="Stroke-609" stroke="#676883" stroke-width="2" stroke-linecap="round" stroke-linejoin="round">

</path>
                <path d="M22,44 L0,44" id="Stroke-610" stroke="#676883" stroke-width="2" stroke-linecap="round" stroke-linejoin="round">

</path>
                <path d="M0,48 L22,48" id="Stroke-611" stroke="#676883" stroke-width="2" stroke-linecap="round" stroke-linejoin="round">

</path>
                <path d="M17,0 L7,0 C5.343,0 4,1.344 4,3 L4,31 C4,32.656 5.343,34 7,34 L47,34 C48.657,34 50,32.656 50,31 L50,8 L8,8 L8,34" id="Stroke-612" stroke="#676883" stroke-width="2" stroke-linecap="round" stroke-linejoin="round">

</path>
                <path d="M25,4 L43,4 C44.657,4 46,5.344 46,7 L46,8" id="Stroke-613" stroke="#676883" stroke-width="2" stroke-linecap="round" stroke-linejoin="round">

</path>
                <path d="M17,0 C22,0 20,4 25,4" id="Stroke-614" stroke="#676883" stroke-width="2" stroke-linecap="round" stroke-linejoin="round">

</path>
                <path d="M32.1484,16.5732 C31.3444,15.0472 29.6894,14.0002 27.7774,14.0002 C25.0784,14.0002 22.8884,16.0892 22.8884,18.6672 C20.1884,18.6672 18.0004,20.7562 18.0004,23.3332 C18.0004,25.9112 20.1884,28.0002 22.8884,28.0002 L33.8884,28.0002 C37.2634,28.0002 40.0004,25.3882 40.0004,22.1672 C40.0004,18.9452 37.2634,16.3332 33.8884,16.3332 C33.2844,16.3332 32.6994,16.4172 32.1474,16.5732 L32.1484,16.5732 Z" id="Stroke-615" stroke="#676883" stroke-width="2" stroke-linecap="round" stroke-linejoin="round">

</path>
            </g>
        </g>
    </g>
</svg>